<svg xmlns="http://www.w3.org/2000/svg" version="1.1" xmlns:xlink="http://www.w3.org/1999/xlink" width="512" height="512" x="0" y="0" viewBox="0 0 24 24" style="enable-background:new 0 0 512 512" xml:space="preserve" class=""><g><path d="M12 14a3 3 0 0 0-3 3v7.026h6V17a3 3 0 0 0-3-3Z" fill="#c0c0c0" opacity="1" data-original="#000000" class=""></path><path d="M13.338.833a2 2 0 0 0-2.676 0L0 10.429v10.4a3.2 3.2 0 0 0 3.2 3.2H7V17a5 5 0 0 1 10 0v7.026h3.8a3.2 3.2 0 0 0 3.2-3.2v-10.4Z" fill="#c0c0c0" opacity="1" data-original="#000000" class=""></path></g></svg>