<?xml version="1.0" encoding="UTF-8"?>
<svg xmlns="http://www.w3.org/2000/svg" id="Layer_1" data-name="Layer 1" viewBox="0 0 24 24">
  <path d="m23.96,2.161L21.839.04l-3.206,3.206c-1.847-1.403-4.141-2.246-6.633-2.246C5.935,1,1,5.935,1,12c0,2.493.843,4.787,2.246,6.633L.04,21.84l2.121,2.121,3.206-3.206c1.847,1.403,4.14,2.246,6.633,2.246,6.065,0,11-4.935,11-11,0-2.493-.843-4.786-2.246-6.633l3.206-3.206ZM4,12c0-4.411,3.589-8,8-8,1.665,0,3.212.512,4.493,1.386l-11.107,11.108c-.874-1.282-1.386-2.829-1.386-4.493Zm16,0c0,4.411-3.589,8-8,8-1.665,0-3.211-.512-4.493-1.386l11.107-11.108c.874,1.282,1.386,2.828,1.386,4.493Z"/>
</svg>
