<svg xmlns="http://www.w3.org/2000/svg" version="1.1" xmlns:xlink="http://www.w3.org/1999/xlink" width="512" height="512" x="0" y="0" viewBox="0 0 24 24" style="enable-background:new 0 0 512 512" xml:space="preserve" class=""><g><path d="M13.088 5.084C14.153 4.388 16 2.883 16 .8V0H8v.8c0 2.083 1.847 3.588 2.912 4.284C5.548 5.908 1 12.63 1 18c0 3.309 2.691 6 6 6h10c3.309 0 6-2.691 6-6 0-5.37-4.548-12.092-9.912-12.916Zm-2.445 8.676 3.042.507A2.762 2.762 0 0 1 16 17c0 1.654-1.346 3-3 3v1h-2v-1c-1.654 0-3-1.346-3-3h2c0 .551.449 1 1 1h2c.551 0 1-.449 1-1a.768.768 0 0 0-.644-.76l-3.042-.507A2.762 2.762 0 0 1 7.999 13c0-1.654 1.346-3 3-3V9h2v1c1.654 0 3 1.346 3 3h-2c0-.551-.449-1-1-1h-2c-.551 0-1 .449-1 1 0 .378.271.698.644.76Z" fill="#b09727" opacity="1" data-original="#000000" class=""></path></g></svg>