<svg xmlns="http://www.w3.org/2000/svg" version="1.1" xmlns:xlink="http://www.w3.org/1999/xlink" width="512" height="512" x="0" y="0" viewBox="0 0 24 24" style="enable-background:new 0 0 512 512" xml:space="preserve" class=""><g><path d="m-.081 11 2.8-3.5-2.8-3.5H4V-.032l3.5 2.755L11-.081v3.134l-4.077 3.64A14.064 14.064 0 0 0 3.69 11Zm24.059 4.187c0-.278 0-.556-.022-.833l-.436-5.092a2.984 2.984 0 0 0-1.891-2.535l-6.455-2.5a2.987 2.987 0 0 0-3.106.55L8.256 8.185c-.21.187-.4.4-.6.6Zm-.139 2.093a12.018 12.018 0 0 1-.687 2.53L21.9 22.969l-1.861-.732-.739 1.855-4.648-1.845.731-1.839-5.028-1.976-.747 1.88-4.648-1.847.74-1.865-1.862-.731L5.1 12.705a11.98 11.98 0 0 1 1.229-2.3Zm-13.88-3.307a1.006 1.006 0 0 0-.739 1.872 1.006 1.006 0 0 0 .739-1.872Zm8.753 3.436a.994.994 0 0 0-.73 1.848.994.994 0 0 0 .73-1.848Z" fill="#0f2d69" opacity="0.9490196078431372" data-original="#000000" class=""></path></g></svg>